<svg id="svg" version="1.1" xmlns="http://www.w3.org/2000/svg" xmlns:xlink="http://www.w3.org/1999/xlink" width="400" height="54.37520180820149" viewBox="0, 0, 400,54.37520180820149"><g id="svgg"><path id="path0" d="M313.917 5.783 C 313.140 5.965,313.167 5.217,313.167 26.930 C 313.167 46.898,313.175 47.474,313.485 47.857 C 313.949 48.429,319.766 48.475,320.330 47.911 C 320.793 47.448,320.875 6.759,320.414 6.056 C 320.167 5.679,315.246 5.472,313.917 5.783 M84.417 8.415 C 82.504 8.898,81.455 9.268,80.000 9.972 C 79.587 10.171,79.200 10.334,79.138 10.334 C 78.857 10.333,74.346 13.121,74.000 13.510 C 73.954 13.561,73.416 13.958,72.803 14.391 C 72.191 14.825,71.666 15.237,71.637 15.308 C 71.607 15.379,70.871 15.995,70.000 16.677 C 69.129 17.359,68.229 18.104,67.999 18.333 C 67.769 18.563,67.132 19.125,66.583 19.583 C 66.035 20.042,65.504 20.492,65.404 20.583 C 65.304 20.675,64.822 21.087,64.333 21.500 C 63.395 22.292,63.334 22.345,62.609 22.996 C 62.338 23.238,62.101 23.341,62.033 23.245 C 61.969 23.155,61.092 22.527,60.083 21.850 C 59.075 21.172,58.095 20.479,57.906 20.309 C 57.717 20.139,57.507 20.000,57.441 20.000 C 57.332 20.000,56.370 19.371,56.167 19.166 C 56.121 19.120,55.746 18.858,55.333 18.583 C 54.921 18.308,54.475 17.980,54.342 17.854 C 54.136 17.659,54.046 17.695,53.718 18.104 C 53.054 18.934,52.798 18.583,59.896 26.565 C 60.457 27.196,60.996 27.796,61.092 27.898 C 61.189 28.000,61.797 28.683,62.444 29.417 C 64.442 31.680,67.473 34.833,67.650 34.833 C 67.710 34.833,68.470 34.155,69.338 33.325 C 72.554 30.253,73.306 29.542,75.256 27.734 C 76.353 26.717,77.662 25.523,78.167 25.082 C 78.671 24.641,79.121 24.233,79.167 24.176 C 79.360 23.936,82.320 21.679,83.004 21.251 C 83.415 20.994,83.787 20.732,83.833 20.668 C 83.961 20.491,87.184 18.965,87.750 18.814 C 88.025 18.740,88.662 18.562,89.167 18.417 C 95.250 16.668,101.542 19.848,106.725 27.290 C 107.060 27.770,107.333 28.227,107.333 28.306 C 107.333 28.384,107.483 28.584,107.667 28.750 C 108.059 29.105,108.008 27.775,107.563 26.007 C 107.436 25.506,107.333 24.944,107.333 24.757 C 107.333 24.372,106.847 22.848,106.134 21.000 C 105.869 20.313,105.624 19.637,105.590 19.500 C 105.509 19.172,104.543 17.371,104.145 16.808 C 103.974 16.564,103.833 16.314,103.833 16.251 C 103.833 16.188,103.681 15.937,103.495 15.693 C 103.309 15.449,102.957 14.987,102.712 14.667 C 101.896 13.596,99.303 11.174,98.385 10.625 C 96.880 9.725,96.096 9.303,95.833 9.251 C 95.696 9.224,95.321 9.088,95.000 8.948 C 92.550 7.885,87.519 7.632,84.417 8.415 M336.583 16.265 C 332.703 16.788,330.316 17.602,329.305 18.750 C 329.143 18.933,329.009 19.024,329.006 18.950 C 329.002 18.877,328.644 19.186,328.208 19.637 C 325.008 22.950,324.333 25.207,324.333 32.598 C 324.333 38.150,324.624 39.921,325.902 42.167 C 326.137 42.579,326.383 43.029,326.448 43.167 C 327.085 44.500,330.128 46.951,331.991 47.632 C 335.135 48.780,342.741 49.061,346.167 48.156 C 346.488 48.071,347.018 48.001,347.345 48.001 C 349.631 47.997,350.000 47.500,350.000 44.418 C 350.000 41.513,350.066 41.587,347.591 41.723 C 346.578 41.778,344.120 41.913,342.127 42.022 C 334.831 42.423,332.364 41.003,331.882 36.125 L 331.787 35.167 341.019 35.161 C 348.012 35.157,350.314 35.107,350.514 34.953 C 352.076 33.754,351.101 25.689,348.934 21.879 C 346.882 18.271,341.123 15.653,336.583 16.265 M362.500 16.264 C 356.549 16.923,354.051 18.783,353.407 23.035 C 352.928 26.194,353.785 28.784,356.053 31.034 C 356.681 31.657,358.822 33.167,359.078 33.167 C 359.134 33.167,359.271 33.244,359.382 33.339 C 359.681 33.596,361.638 34.833,361.745 34.833 C 361.795 34.833,362.210 35.096,362.667 35.417 C 363.123 35.737,363.530 36.000,363.571 36.000 C 363.799 36.000,366.677 37.929,367.198 38.430 C 368.434 39.622,368.164 41.394,366.639 42.092 C 365.902 42.429,359.185 42.363,356.144 41.988 C 353.506 41.664,353.500 41.670,353.500 44.587 C 353.500 47.566,353.452 47.527,358.000 48.263 C 365.789 49.524,371.958 48.184,374.290 44.723 C 376.220 41.859,376.137 36.948,374.118 34.550 C 372.994 33.214,371.787 32.194,370.250 31.283 C 369.517 30.848,368.804 30.420,368.667 30.332 C 368.529 30.244,367.718 29.740,366.864 29.211 C 366.011 28.683,365.111 28.120,364.864 27.961 C 364.618 27.802,364.267 27.596,364.083 27.503 C 361.056 25.972,360.165 24.529,361.475 23.274 C 362.422 22.366,365.459 22.297,372.452 23.025 L 374.321 23.219 374.662 22.818 C 375.183 22.207,375.102 18.120,374.561 17.682 C 373.679 16.969,365.168 15.968,362.500 16.264 M386.917 16.265 C 383.947 16.665,382.836 16.944,381.389 17.654 C 380.665 18.009,378.833 19.719,378.833 20.039 C 378.833 20.141,378.721 20.348,378.583 20.501 C 377.824 21.339,377.404 25.313,377.921 26.750 C 378.054 27.117,378.163 27.505,378.164 27.614 C 378.167 27.846,379.174 29.528,379.416 29.706 C 379.521 29.782,379.522 29.829,379.421 29.831 C 379.004 29.837,381.653 32.070,383.192 33.010 C 384.141 33.589,385.742 34.573,386.750 35.197 C 387.758 35.820,388.771 36.423,389.000 36.537 C 389.229 36.650,389.477 36.838,389.550 36.955 C 389.623 37.071,389.758 37.167,389.848 37.167 C 389.939 37.167,390.254 37.334,390.548 37.538 C 392.299 38.755,392.779 39.639,392.306 40.781 C 392.199 41.039,392.105 41.318,392.097 41.402 C 392.019 42.248,386.864 42.669,382.583 42.178 C 377.739 41.622,378.000 41.485,378.000 44.577 C 378.000 47.196,378.059 47.314,379.583 47.712 C 384.293 48.944,391.970 48.952,394.775 47.729 C 395.064 47.603,395.364 47.498,395.442 47.495 C 396.141 47.472,398.512 45.273,399.120 44.083 C 399.996 42.371,400.027 42.200,399.970 39.488 C 399.910 36.577,399.566 35.542,398.171 34.059 C 397.351 33.188,395.692 31.847,394.799 31.333 C 394.369 31.086,392.491 29.932,391.343 29.210 C 391.017 29.005,390.600 28.763,390.417 28.672 C 390.233 28.581,389.558 28.171,388.917 27.760 C 388.275 27.350,387.412 26.811,387.000 26.564 C 385.116 25.433,384.795 24.093,386.159 23.054 C 387.022 22.396,391.559 22.385,396.968 23.028 C 399.326 23.308,399.328 23.306,399.353 20.680 C 399.381 17.607,399.313 17.453,397.833 17.243 C 397.421 17.184,396.807 17.067,396.469 16.981 C 394.871 16.578,388.268 16.083,386.917 16.265 M340.003 23.352 C 341.749 24.163,342.897 25.687,343.181 27.573 C 343.265 28.129,343.374 28.827,343.424 29.125 L 343.515 29.667 337.674 29.667 C 330.954 29.667,331.635 29.897,332.094 27.783 C 332.361 26.552,332.943 25.167,333.193 25.167 C 333.270 25.167,333.335 25.073,333.336 24.958 C 333.338 24.844,333.507 24.596,333.711 24.408 C 334.201 23.958,335.167 23.287,335.167 23.397 C 335.167 23.445,335.485 23.335,335.875 23.154 C 336.889 22.681,338.750 22.771,340.003 23.352 M19.598 30.375 C 19.707 30.712,20.023 31.831,20.757 34.473 C 21.306 36.454,23.259 40.875,24.201 42.274 C 24.457 42.654,24.667 43.009,24.667 43.063 C 24.667 43.278,26.580 45.632,27.392 46.417 C 28.532 47.518,30.000 48.730,30.000 48.570 C 30.000 48.499,30.169 48.600,30.375 48.793 C 32.968 51.219,41.014 51.835,45.920 49.983 C 46.380 49.809,46.839 49.667,46.941 49.667 C 47.042 49.667,47.528 49.491,48.021 49.277 C 48.922 48.886,49.346 48.719,49.500 48.697 C 49.546 48.690,50.023 48.463,50.560 48.192 C 51.611 47.662,51.963 47.698,53.109 48.449 C 53.324 48.590,53.500 48.654,53.500 48.592 C 53.500 48.530,53.781 48.627,54.125 48.809 C 54.469 48.990,55.237 49.325,55.833 49.551 C 56.429 49.778,57.742 50.316,58.750 50.747 C 61.201 51.793,61.049 51.771,61.562 51.161 L 62.009 50.631 61.213 50.128 C 60.357 49.587,57.901 47.717,57.083 46.983 C 56.808 46.736,55.871 45.914,55.000 45.156 C 54.129 44.398,53.180 43.546,52.892 43.264 C 49.805 40.244,47.667 38.126,47.667 38.088 C 47.667 37.975,46.396 36.667,46.286 36.667 C 46.218 36.667,45.751 37.002,45.248 37.411 C 44.385 38.114,42.390 39.500,42.241 39.500 C 42.203 39.500,41.712 39.723,41.149 39.995 C 35.030 42.960,27.952 40.424,22.088 33.167 C 20.983 31.799,20.000 30.387,20.000 30.168 C 20.000 30.076,19.882 30.000,19.739 30.000 C 19.543 30.000,19.508 30.094,19.598 30.375 " stroke="none" fill="#1c74bc" fill-rule="evenodd"></path><path id="path1" d="M13.583 0.340 C 11.557 0.747,8.334 1.797,7.925 2.184 C 7.838 2.266,7.650 2.339,7.508 2.346 C 7.366 2.354,6.912 2.575,6.500 2.838 C 6.087 3.101,5.510 3.440,5.216 3.590 C 4.923 3.741,4.488 4.044,4.249 4.265 C 4.011 4.486,3.783 4.667,3.741 4.667 C 3.700 4.667,3.530 4.798,3.362 4.958 C 3.194 5.119,2.876 5.408,2.654 5.602 C 1.995 6.177,1.167 7.125,1.167 7.305 C 1.167 7.397,1.103 7.497,1.025 7.528 C 0.947 7.558,0.684 7.901,0.442 8.288 C -0.042 9.060,-0.152 9.761,0.233 9.613 C 1.676 9.059,6.101 8.150,9.000 7.811 C 14.035 7.224,19.438 8.020,23.083 9.886 C 23.267 9.980,23.792 10.249,24.250 10.483 C 24.708 10.717,25.439 11.154,25.873 11.454 C 26.308 11.754,26.707 12.000,26.760 12.000 C 27.325 12.000,33.469 17.712,35.343 19.979 C 35.750 20.472,36.204 20.997,36.351 21.146 C 36.498 21.295,38.330 23.629,40.423 26.333 C 42.515 29.037,44.457 31.515,44.739 31.839 C 45.020 32.163,45.512 32.758,45.833 33.160 C 46.154 33.562,46.677 34.197,46.994 34.571 C 47.834 35.559,55.776 43.451,56.819 44.333 C 57.306 44.746,57.790 45.160,57.894 45.254 C 58.480 45.781,60.708 47.532,61.458 48.056 C 61.940 48.392,62.690 48.915,63.125 49.219 C 63.560 49.522,64.029 49.823,64.167 49.887 C 64.304 49.951,64.642 50.150,64.917 50.328 C 66.378 51.276,69.975 52.898,71.180 53.152 C 71.507 53.221,71.861 53.331,71.965 53.395 C 73.356 54.255,82.458 54.707,85.620 54.073 C 87.783 53.640,90.778 52.758,91.833 52.244 C 92.063 52.133,92.625 51.870,93.083 51.660 C 94.143 51.174,96.899 49.514,96.972 49.316 C 97.003 49.234,97.092 49.167,97.170 49.167 C 97.562 49.167,101.500 45.258,101.500 44.869 C 101.500 44.815,101.641 44.617,101.812 44.427 C 101.984 44.238,102.329 43.708,102.578 43.250 C 102.827 42.792,103.099 42.345,103.182 42.258 C 103.608 41.812,102.958 41.661,102.407 42.078 C 102.229 42.213,101.955 42.325,101.797 42.328 C 101.524 42.333,101.138 42.480,99.537 43.186 C 99.145 43.359,98.712 43.500,98.576 43.500 C 98.439 43.500,98.017 43.706,97.640 43.958 C 93.516 46.709,90.801 47.561,86.167 47.561 C 82.746 47.561,82.646 47.545,79.500 46.496 C 78.904 46.297,76.562 45.186,76.254 44.956 C 76.160 44.886,75.525 44.457,74.842 44.002 C 72.912 42.717,70.559 40.569,66.167 36.083 C 62.957 32.806,61.723 31.489,59.997 29.500 C 59.320 28.721,58.593 27.896,58.380 27.667 C 57.421 26.632,56.843 25.977,55.838 24.782 C 55.245 24.077,54.702 23.500,54.630 23.500 C 54.559 23.500,54.500 23.422,54.500 23.328 C 54.500 23.233,54.294 22.951,54.042 22.700 C 53.790 22.450,53.065 21.628,52.432 20.873 C 51.799 20.118,51.218 19.500,51.141 19.500 C 51.063 19.500,51.000 19.414,51.000 19.309 C 51.000 19.203,50.756 18.868,50.458 18.563 C 50.160 18.259,49.729 17.799,49.500 17.542 C 46.060 13.681,43.924 11.484,41.847 9.666 C 41.166 9.070,40.473 8.452,40.305 8.292 C 40.137 8.131,39.925 8.000,39.833 8.000 C 39.742 8.000,39.667 7.923,39.667 7.828 C 39.667 7.734,39.550 7.611,39.406 7.556 C 39.263 7.501,38.982 7.317,38.781 7.146 C 38.017 6.496,36.126 5.176,35.820 5.079 C 35.644 5.023,35.500 4.922,35.500 4.854 C 35.500 4.748,31.543 2.713,30.083 2.068 C 28.947 1.566,25.901 0.713,23.620 0.258 C 21.721 -0.120,15.629 -0.070,13.583 0.340 M115.178 6.231 L 114.829 6.796 114.873 26.547 C 114.922 48.833,114.776 46.692,116.286 47.197 C 118.872 48.062,122.963 48.583,127.167 48.583 C 131.066 48.583,131.451 48.532,133.833 47.694 C 135.724 47.029,138.833 44.540,138.833 43.691 C 138.833 43.586,138.890 43.500,138.959 43.500 C 139.116 43.500,139.714 42.356,140.156 41.211 C 141.554 37.589,141.612 27.529,140.255 24.000 C 139.617 22.339,137.850 19.500,137.455 19.500 C 137.411 19.500,137.105 19.253,136.775 18.950 C 135.779 18.038,133.321 16.916,131.750 16.658 C 128.654 16.148,125.914 16.131,123.125 16.604 L 122.500 16.710 122.500 11.553 C 122.500 5.023,122.919 5.667,118.674 5.667 L 115.527 5.667 115.178 6.231 M197.196 6.052 L 196.833 6.438 196.839 26.927 C 196.844 49.051,196.792 47.802,197.733 48.160 C 198.465 48.439,203.254 48.383,203.821 48.089 C 204.510 47.733,204.500 47.842,204.501 41.028 L 204.501 34.750 204.854 35.333 C 205.048 35.654,205.273 35.942,205.353 35.972 C 205.434 36.003,205.500 36.102,205.500 36.192 C 205.500 36.329,206.218 37.389,206.499 37.667 C 206.545 37.712,206.658 37.878,206.750 38.034 C 206.842 38.191,207.442 39.078,208.083 40.007 C 209.301 41.769,209.536 42.119,210.078 42.980 C 210.258 43.266,210.464 43.500,210.536 43.500 C 210.608 43.500,210.667 43.580,210.667 43.678 C 210.667 43.872,211.506 45.049,211.708 45.139 C 211.777 45.169,211.833 45.263,211.833 45.347 C 211.833 45.577,212.997 47.189,213.533 47.701 C 214.175 48.315,214.564 48.362,218.536 48.302 C 222.754 48.238,223.243 47.977,221.963 46.470 C 221.754 46.225,221.133 45.406,220.583 44.650 C 218.789 42.184,217.855 40.920,217.676 40.715 C 217.579 40.605,217.500 40.453,217.500 40.377 C 217.500 40.302,217.369 40.122,217.208 39.976 C 217.048 39.830,216.429 39.025,215.833 38.186 C 215.237 37.348,214.319 36.102,213.792 35.419 C 213.265 34.735,212.833 34.106,212.833 34.022 C 212.833 33.938,212.721 33.826,212.583 33.773 C 212.446 33.720,212.333 33.569,212.333 33.436 C 212.333 33.303,212.277 33.169,212.208 33.139 C 212.140 33.108,211.868 32.795,211.605 32.443 C 211.068 31.725,211.099 31.574,212.005 30.500 C 212.275 30.179,212.553 29.842,212.623 29.750 C 212.928 29.349,214.258 27.724,214.492 27.466 C 214.795 27.133,214.793 27.135,216.137 25.443 C 216.707 24.724,217.266 24.042,217.379 23.928 C 217.491 23.814,218.032 23.146,218.581 22.444 C 219.130 21.741,219.636 21.167,219.706 21.167 C 219.776 21.167,219.833 21.062,219.833 20.934 C 219.833 20.807,219.946 20.659,220.083 20.606 C 220.221 20.554,220.333 20.396,220.333 20.255 C 220.333 20.115,220.398 20.000,220.476 20.000 C 220.707 20.000,222.333 17.794,222.333 17.481 C 222.333 16.657,222.378 16.667,218.388 16.667 C 216.271 16.667,214.513 16.737,214.341 16.829 C 213.987 17.019,212.333 19.078,212.333 19.330 C 212.333 19.423,212.266 19.500,212.184 19.500 C 212.102 19.500,211.794 19.875,211.500 20.333 C 211.206 20.792,210.916 21.167,210.855 21.167 C 210.795 21.167,210.672 21.313,210.581 21.493 C 210.399 21.853,208.004 25.041,207.491 25.607 C 207.313 25.803,207.167 26.041,207.167 26.135 C 207.167 26.229,207.110 26.331,207.042 26.361 C 206.973 26.392,206.392 27.117,205.750 27.972 L 204.583 29.528 204.500 17.834 C 204.419 6.501,204.407 6.132,204.093 5.903 C 203.466 5.444,197.649 5.570,197.196 6.052 M301.340 6.031 C 301.013 6.382,301.000 6.594,301.000 11.550 L 301.000 16.704 300.458 16.603 C 299.288 16.385,295.701 16.163,294.833 16.255 C 288.188 16.960,284.749 19.317,283.291 24.167 C 282.442 26.990,282.451 26.915,282.378 31.833 C 282.292 37.585,282.689 40.198,284.016 42.602 C 284.582 43.629,284.751 43.918,284.834 44.000 C 284.880 44.046,285.175 44.383,285.490 44.750 C 286.079 45.435,287.695 46.833,287.898 46.833 C 287.960 46.833,288.212 46.965,288.457 47.125 C 291.212 48.930,298.638 49.207,304.951 47.740 C 305.520 47.608,306.132 47.500,306.312 47.500 C 306.788 47.500,308.215 46.864,308.458 46.544 C 308.622 46.328,308.667 42.021,308.667 26.314 L 308.667 6.358 308.228 6.012 C 307.534 5.467,301.851 5.483,301.340 6.031 M155.250 16.264 C 153.164 16.549,152.137 16.733,151.417 16.951 C 147.723 18.067,145.097 20.739,143.916 24.583 C 142.972 27.657,142.877 36.859,143.759 39.689 C 143.892 40.114,144.000 40.542,144.000 40.641 C 144.000 42.014,147.714 46.833,148.772 46.833 C 148.837 46.833,149.009 46.931,149.154 47.050 C 149.443 47.287,150.701 47.782,152.250 48.267 C 154.578 48.996,160.831 48.759,165.750 47.756 C 166.392 47.625,167.176 47.467,167.493 47.405 C 167.811 47.342,168.354 47.143,168.702 46.962 L 169.333 46.633 169.333 32.502 L 169.333 18.372 168.949 18.120 C 167.589 17.229,157.847 15.909,155.250 16.264 M184.167 16.262 C 183.938 16.300,183.225 16.415,182.583 16.517 C 177.311 17.354,173.769 20.950,172.749 26.500 C 172.549 27.587,172.465 35.405,172.634 37.185 C 172.831 39.257,173.353 41.203,174.038 42.417 C 174.141 42.600,174.308 42.908,174.409 43.100 C 175.485 45.152,178.299 47.389,180.583 48.009 C 180.858 48.083,181.533 48.270,182.083 48.422 C 183.533 48.826,189.586 48.678,191.750 48.187 C 193.836 47.714,193.833 47.717,193.833 44.757 C 193.833 41.901,193.754 41.751,192.302 41.880 C 181.140 42.871,180.167 42.119,180.167 32.496 C 180.167 26.047,180.728 24.370,183.289 23.166 C 184.100 22.785,189.774 22.677,191.793 23.005 C 192.648 23.144,192.925 23.128,193.334 22.916 L 193.833 22.658 193.833 20.188 C 193.833 17.449,193.818 17.407,192.667 17.016 C 191.483 16.614,185.335 16.069,184.167 16.262 M236.000 16.265 C 232.764 16.619,230.415 17.416,228.679 18.745 C 228.074 19.209,226.167 21.186,226.167 21.349 C 226.167 21.424,225.990 21.746,225.773 22.065 C 225.248 22.840,224.434 24.971,224.102 26.441 C 223.724 28.113,223.711 36.959,224.083 38.390 C 224.221 38.918,224.334 39.477,224.334 39.633 C 224.335 39.789,224.439 40.116,224.566 40.359 C 224.693 40.602,224.885 41.068,224.993 41.395 C 225.517 42.984,227.994 45.845,229.525 46.629 C 229.924 46.833,230.438 47.105,230.667 47.233 C 231.166 47.512,232.063 47.851,233.417 48.272 C 234.853 48.719,241.627 48.809,244.167 48.415 C 245.129 48.266,246.442 48.075,247.083 47.990 C 249.431 47.679,249.500 47.577,249.500 44.418 C 249.500 41.524,249.553 41.585,247.173 41.720 C 236.827 42.307,235.990 42.273,234.217 41.182 C 232.593 40.183,231.333 37.811,231.333 35.752 L 231.333 35.167 240.591 35.167 L 249.848 35.167 250.279 34.736 L 250.710 34.305 250.620 31.194 C 250.436 24.774,248.766 20.799,245.312 18.559 C 244.911 18.299,244.546 18.039,244.500 17.981 C 244.428 17.889,243.846 17.637,242.184 16.977 C 241.061 16.531,237.409 16.110,236.000 16.265 M263.833 16.244 C 263.696 16.276,263.021 16.391,262.333 16.498 C 257.955 17.178,255.171 19.709,253.990 24.083 C 253.695 25.173,253.674 25.997,253.671 36.537 L 253.667 47.825 254.158 48.079 C 255.233 48.635,260.587 48.381,261.039 47.753 C 261.106 47.660,261.163 42.821,261.164 36.999 C 261.168 22.378,261.056 22.678,266.500 22.672 C 269.515 22.670,269.870 22.742,270.649 23.522 C 271.935 24.807,271.893 24.386,271.956 36.803 L 272.011 47.855 272.584 48.094 C 273.394 48.433,278.111 48.431,278.922 48.092 L 279.500 47.850 279.501 36.634 C 279.501 25.706,279.492 25.384,279.148 24.167 C 278.697 22.573,278.144 21.167,277.969 21.167 C 277.895 21.167,277.833 21.085,277.833 20.986 C 277.833 20.155,275.114 17.834,273.331 17.143 C 271.572 16.462,265.379 15.875,263.833 16.244 M129.264 22.693 C 129.806 22.799,130.449 23.024,130.692 23.193 C 130.936 23.362,131.184 23.500,131.243 23.500 C 133.496 23.500,134.609 35.260,132.763 39.545 C 132.352 40.500,131.362 41.492,130.364 41.948 C 129.443 42.369,123.308 42.503,122.708 42.115 C 122.546 42.010,122.500 39.887,122.500 32.427 L 122.500 22.874 124.292 22.713 C 126.877 22.479,128.146 22.474,129.264 22.693 M160.042 22.694 L 161.833 22.888 161.833 32.505 L 161.833 42.123 161.208 42.226 C 159.589 42.494,154.898 42.343,154.119 41.999 C 152.652 41.350,151.910 40.450,151.234 38.500 C 150.765 37.145,150.753 27.701,151.219 26.417 C 152.483 22.935,154.482 22.091,160.042 22.694 M298.875 22.697 L 301.000 22.895 301.000 32.509 L 301.000 42.123 300.375 42.226 C 298.717 42.500,294.065 42.343,293.257 41.986 C 290.704 40.857,290.023 38.867,290.009 32.500 C 289.989 23.624,291.454 22.004,298.875 22.697 M239.500 23.351 C 241.462 24.263,242.663 26.091,242.799 28.375 L 242.876 29.667 237.105 29.667 C 231.395 29.667,231.333 29.663,231.333 29.325 C 231.333 28.781,231.828 26.616,232.036 26.250 C 232.141 26.067,232.310 25.756,232.413 25.560 C 232.663 25.082,233.622 24.000,233.795 24.000 C 233.871 24.000,234.022 23.911,234.131 23.802 C 235.142 22.792,237.812 22.567,239.500 23.351 M324.236 32.583 C 324.236 34.325,324.261 35.015,324.291 34.116 C 324.321 33.218,324.321 31.793,324.291 30.950 C 324.261 30.107,324.236 30.842,324.236 32.583 " stroke="none" fill="#444444" fill-rule="evenodd"></path><path id="path2" d="M320.747 26.917 C 320.747 38.008,320.767 42.570,320.792 37.055 C 320.816 31.539,320.816 22.464,320.792 16.888 C 320.767 11.312,320.747 15.825,320.747 26.917 M399.397 20.583 C 399.397 21.683,399.424 22.112,399.457 21.535 C 399.490 20.959,399.489 20.059,399.456 19.535 C 399.423 19.012,399.397 19.483,399.397 20.583 " stroke="none" fill="#2474b4" fill-rule="evenodd"></path><path id="path3" d="" stroke="none" fill="#305c64" fill-rule="evenodd"></path><path id="path4" d="" stroke="none" fill="#306044" fill-rule="evenodd"></path></g></svg>